<svg xmlns="http://www.w3.org/2000/svg" xmlns:xlink="http://www.w3.org/1999/xlink" version="1.1" x="0px" y="0px" viewBox="0 0 100 125" enable-background="new 0 0 100 100" xml:space="preserve"><path d="M70.5,25.4c0-0.3,0-0.6-0.1-0.9c-0.7-2.8-1.9-4.8-2.9-6.1C60.6,9.6,46.2,11,45.2,11c0,0,0,0-0.1,0c-1.1,0-14.6-1.3-21.2,7.2  c-1.6,2.1-2.5,4.4-2.9,6.3c-0.1,0.3-0.1,0.9-0.1,1.2L24,82h0l-0.6,6.9c0.2,0.6,0.6,0.5,0.9,0.7c1.7,1.4,5,1.1,6.1,1  c0.2,0,0.4,0,0.6-0.1c1,0,4.1,0.1,5.8-1.2c0.5-0.4,0.7-0.4,0.9-0.8l-0.3-3.1C37,83.4,38.8,82,41,82h9.3c2.3,0,4,1.4,3.8,3.5  l-0.3,3.3c0.2,0.6,0.6,0.5,0.9,0.8c1.7,1.4,5,1.1,6.1,1c0.2,0,0.4,0,0.6,0c1,0,4.1,0.1,5.8-1.2c0.5-0.4,0.7-0.4,0.9-0.8  c-0.2-2.4-0.4-4.8-0.6-7.2L70.5,25.4z M45.5,48c-7.8,0-14.1-6.3-14.1-14s6.3-14,14.1-14s14.1,6.3,14.1,14S53.3,48,45.5,48z   M45.5,25.7c-4.6,0-8.4,3.7-8.4,8.3s3.8,8.3,8.4,8.3s8.4-3.7,8.4-8.3S50.1,25.7,45.5,25.7z M48.8,40c-0.7,0-1.4-0.6-1.4-1.3  c0-0.7,0.6-1.3,1.4-1.3c0.7,0,1.4,0.6,1.4,1.3C50.2,39.4,49.6,40,48.8,40z M48.8,34.7c-1.7,0-3.1-1.4-3.1-3c0-1.7,1.4-3,3.1-3  s3.1,1.4,3.1,3C51.9,33.3,50.5,34.7,48.8,34.7z M39.1,47c-0.4-0.2-0.8-0.4-1.4-0.4c-0.9,0-1.9,0.4-2.7,0.7c-1.3,0.6-2,1.7-2.8,2.8  c-0.5,0.8-1,1.6-1.7,2.2c-0.2,0.2-0.4,0.4-0.6,0.6c0,0,0,0,0,0c-1.3,1.4-2.2,3.2-3,4.9c-0.8,1.6-1.7,3.3-2.9,4.7  c-1.7,1.8-2.9,3.9-4.2,5.9c-1.3,2.1-2.6,4.2-4.3,6.1c-2.5,2.7-5.5,4.8-8.6,6.1C6,81,5.5,81.7,5.6,82.5c0,0.8,0.5,1.5,1.3,1.8  c1.7,0.6,3.3,0.8,5,0.8c0.2,0,0.4,0,0.6,0c2.6-0.1,7.4-0.8,10.1-3.9c0.3-0.4,0.9-1,1.6-1.6c0.8-0.8,1.6-1.6,2-2.1  c3-3.6,5.8-5.2,9.6-6.6c0.8-0.3,1.3-1.1,1.3-1.9C36.8,62.2,37.6,53.2,39.1,47z M12.7,84c-1.3,0.1-2.4-0.3-2.5-1.1  c-0.1-0.7,0.9-1.5,2.2-1.6c1.3-0.1,2.4,0.3,2.5,1.1C14.9,83.2,14,83.9,12.7,84z M19.6,81.8c-1.5,0.5-2.9,0.2-3.2-0.7  c-0.3-0.9,0.6-2,2.1-2.5c1.5-0.5,2.9-0.2,3.2,0.7C22,80.1,21.1,81.3,19.6,81.8z M25.6,77.3c-0.6,0.8-1.8,1-2.7,0.4  c-0.9-0.6-1.1-1.8-0.5-2.6c0.6-0.8,1.8-1,2.7-0.4C26,75.3,26.2,76.5,25.6,77.3z M95.7,35.6c-2.8-0.9-5.3-1.2-7.6-1  c-3.5,0.4-6.6,2.1-8.2,4.7c-0.8,1.4-1.3,2.9-1.7,4.4c-0.3,1.2-0.7,2.5-1.2,3.6c-0.8,1.7-2.1,3.1-3.7,4.2c-1.6,1.1-3.5,1.7-5.3,1.8  c-0.2,0-0.4,0-0.6,0c-1.7,0-3.4-0.4-4.9-1.2c-1.7-0.9-3.1-2.2-4.1-3.7c-1.8,3.2-3.6,6.3-5.4,9.5c-0.4,0.7-0.8,1.4-1,2.2  c-0.3,1.4,0.1,3.4,2.1,5.2c1.2,1,2.7,1.8,4.9,2.5c3,1,6.3,1.8,10,2.3c3.3,0.5,7,0.8,9.9-1c3.1-1.9,4.5-5.6,5.7-9.5  c1.1-3.6,2.2-7.2,3.3-10.7c1.3-4.3,3.1-9.1,7.2-10.9c0.2-0.1,0.4-0.2,0.6-0.3c0.1,0,0.2-0.1,0.3-0.1c0.5-0.2,0.7-0.6,0.7-1.1  C96.3,36,96.1,35.7,95.7,35.6z M72.8,68.5c-1.6,0.2-3.1-0.5-3.2-1.5c-0.1-1,1.1-2.1,2.8-2.3c1.6-0.2,3.1,0.5,3.2,1.5  C75.7,67.3,74.5,68.3,72.8,68.5z M79.8,64.7c-0.6,0.8-1.7,1-2.5,0.4c-0.8-0.6-1-1.8-0.5-2.6c0.6-0.8,1.7-1,2.5-0.4  C80.1,62.7,80.3,63.8,79.8,64.7z M83.1,59.5c-0.6,1.3-1.8,2.1-2.7,1.6c-0.9-0.4-1.2-1.9-0.6-3.2c0.6-1.3,1.8-2.1,2.7-1.6  C83.4,56.7,83.7,58.1,83.1,59.5z M85.9,52.1c-0.3,1.4-1.4,2.4-2.4,2.1c-1-0.3-1.5-1.6-1.1-3c0.3-1.4,1.4-2.4,2.4-2.1  C85.7,49.3,86.2,50.7,85.9,52.1z M85.9,46.8c-0.9,0.1-1.8-0.4-1.9-1.2c-0.1-0.7,0.6-1.4,1.6-1.5c0.9-0.1,1.8,0.4,1.9,1.2  C87.5,46,86.8,46.7,85.9,46.8z M89.4,41c-1.1,1.1-2.5,1.4-3.2,0.7c-0.7-0.7-0.3-2.1,0.8-3.1s2.5-1.4,3.2-0.7  C90.9,38.5,90.5,39.9,89.4,41z"/><text x="0" y="115" fill="#000000" font-size="5px" font-weight="bold" font-family="'Helvetica Neue', Helvetica, Arial-Unicode, Arial, Sans-serif">Created by April Yang</text><text x="0" y="120" fill="#000000" font-size="5px" font-weight="bold" font-family="'Helvetica Neue', Helvetica, Arial-Unicode, Arial, Sans-serif">from the Noun Project</text></svg>