<svg xmlns="http://www.w3.org/2000/svg" xmlns:xlink="http://www.w3.org/1999/xlink" version="1.1" x="0px" y="0px" viewBox="0 0 90 112.5" style="enable-background:new 0 0 90 90;" xml:space="preserve"><g><path d="M45.125,33.06499c2.17999,0,3.95001-1.77002,3.95001-3.95001s-1.77002-3.94995-3.95001-3.94995   c-2.19,0-3.96002,1.76996-3.96002,3.94995S42.935,33.06499,45.125,33.06499z"/><path d="M76.03497,31.52502c0,0-3.63-0.19-6.98999-0.47003c-0.52997-1.38995-1.16998-2.82001-1.92999-4.25   c3.32001-2.89996,7.71002-6.57996,7.71002-6.57996l-10.02002,2.85999c-0.37-0.51001-0.75-1-1.15002-1.48999L73.44501,8.885   l-13.02002,9.41998c-3.52997-3.01001-8.13-5.20996-14.09998-5.64996h-2.41003c-6.91998,0.51001-12.01996,3.38-15.72998,7.15997   L20.19501,8.885l5.02997,14.48999c-0.65997,0.94-1.25,1.90002-1.78998,2.87l-7.21997-3.52997l6.06,5.78998   C21.79498,29.54498,21.375,30.575,21.005,31.58501l-7.03998,1.47998l5.85999,2.27002c-0.92999,3.54999-1.14001,6.26001-1,6.89996   c0.33997,1.57001,1.57001,1.13,2.22998,0.75c0.03003,1.54004,0.06,3.35004,0.09998,5.34003   c0.07001,3.12,0.15002,6.66998,0.24005,10.33997c0.10999,3.82001,0.21997,7.75,0.32996,11.44   c1.54004,1.72003,3.04004,3.38,4.44,4.94c1.92999-0.88995,3.73999-1.71997,5.37-2.46997   c-0.02997-0.70001-0.06-1.37-0.08997-2.01001c-0.02002-0.27997-0.03003-0.54999-0.04999-0.81   c-0.01001-0.22998-0.03003-0.46002-0.04004-0.66998C31.315,68.575,31.28497,68.10497,31.255,67.66497   c-0.03003-0.41998-0.07001-0.81995-0.10004-1.17999c-1.75-0.46997-2.51996-0.57996-2.34998-0.32001   c0.12,0.19,0.67999,0.53003,1.46002,0.95001c-0.03003,0.28003-0.07001,0.59003-0.11005,0.92004   c-0.01996,0.15997-0.02997,0.31995-0.04999,0.48999c-0.01996,0.17999-0.02997,0.37-0.04999,0.56   c-0.06,0.70996-0.13,1.5-0.20001,2.37c-0.92999,0.31-1.95996,0.64996-3.07001,1.02002   c-0.15997-0.22003-0.32996-0.45001-0.5-0.68005l-0.23999-0.32996l-0.37-0.48004c-0.27997-0.34998-0.56-0.70996-0.83997-1.07001   L24.625,69.64501l-0.12-0.16003l-0.22998-0.31l0.02997-0.38l0.01001-0.19l0.01001-0.31   c0.01996-0.44995,0.02997-0.89996,0.04999-1.35999c0.02997-0.90997,0.06-1.82001,0.09003-2.73999   c0.06-1.84998,0.10999-3.70001,0.16998-5.53003c0.01001-0.60999,0.02997-1.20996,0.03998-1.79999   c0.25,0.48004,0.91003,1.17004,2.62,1.83002c-0.01996,0.34998-0.02997,0.71002-0.03998,1.04999   c2.01001,1.98999,4.71997,3.60999,8.33997,4.56c0.22003,0.04999,0.46002,0.10004,0.68005,0.15002   c0.16998,4.02997,0.33997,8.06,0.5,12.09998c-0.38-0.03998-0.77002-0.06-1.17004-0.06c-3.63995,0-6.57996,1.46002-6.57996,3.27002   c0,1.79999,13.15997,1.79999,13.15997,0c0-0.79999-0.57001-1.52002-1.52002-2.09003   c-0.17999-4.20996-0.34998-8.40997-0.51996-12.62c1.17999,0.10999,2.42999,0.15002,3.76996,0.13h2.41003   c1.25,0.02002,2.41998-0.02002,3.53998-0.10999c-0.17999,4.20001-0.34998,8.40002-0.52997,12.59998   c-0.94,0.57001-1.52002,1.29004-1.52002,2.09003c0,1.79999,13.16998,1.79999,13.16998,0c0-1.81-2.95001-3.27002-6.58002-3.27002   c-0.40997,0-0.79999,0.02002-1.17999,0.06c0.17004-4.01996,0.33002-8.02997,0.5-12.03998   c0.31-0.07001,0.63-0.14001,0.92004-0.21002c3.63-0.95001,6.32996-2.57001,8.34998-4.56   c-0.01001-0.33997-0.02997-0.70001-0.03998-1.04999c3.03998-1.17999,2.76001-2.46002,2.76001-2.46002   c0.44995-0.76996,0.82996-1.57001,1.16998-2.37c0.02997,1.56,0.08002,3.16003,0.12,4.79999   c0.04999,1.83002,0.10999,3.68005,0.15997,5.53003c0.03003,0.91998,0.06,1.83002,0.09003,2.73999   c0.02002,0.46002,0.02997,0.91003,0.04999,1.35999l0.01001,0.31l0.01001,0.19l0.02997,0.38l-0.22998,0.31l-0.12,0.16003   l-0.21002,0.26996c-0.27997,0.36005-0.56,0.72003-0.83997,1.07001l-0.37,0.48004l-0.24005,0.32996   c-0.16998,0.23004-0.33997,0.46002-0.5,0.68005c-1.10999-0.37006-2.13995-0.71002-3.06995-1.02002   c-0.07001-0.87-0.14001-1.66003-0.20001-2.37c-0.01001-0.19-0.03003-0.38-0.04999-0.56   C61.505,68.35497,61.495,68.195,61.47498,68.03503c-0.03998-0.33002-0.07001-0.64001-0.10999-0.92004   c0.78003-0.41998,1.34003-0.76001,1.46002-0.95001c0.16998-0.25995-0.60004-0.14996-2.35004,0.32001   c-0.02997,0.36005-0.06,0.76001-0.09998,1.17999c-0.03003,0.44-0.06,0.91003-0.09998,1.42004   c-0.01001,0.20996-0.03003,0.44-0.04004,0.66998c-0.01996,0.26001-0.02997,0.53003-0.04999,0.81   c-0.03003,0.64001-0.06,1.31-0.09003,2.01001c1.63,0.75,3.44,1.58002,5.37006,2.46997c1.39996-1.56,2.89996-3.21997,4.44995-4.94   c0.10004-3.69,0.21002-7.62,0.32001-11.44c0.09003-3.66998,0.16998-7.21997,0.23999-10.33997   c0.03003-1.84998,0.07001-3.53998,0.09003-5.01001c0.38-0.08997,0.70001-0.38,0.85999-1.08002   c0.15002-0.71997-0.14001-4.13995-1.42999-8.39996L76.03497,31.52502z M45.125,19.62499   c6.66998,0,12.09003,5.41003,12.09003,12.09003c0,1.56-0.31006,3.04999-0.85004,4.41998   c-3.33002-0.47998-7.15997-0.75-11.23999-0.75c-4.09003,0-7.91998,0.27002-11.23999,0.75   c-0.54004-1.37-0.85004-2.85999-0.85004-4.41998C33.03497,25.03503,38.44501,19.62499,45.125,19.62499z M45.125,39.10497   c-6.69,0-12.96002,0.42004-18.33002,1.14001c3.10004-1.82001,10.14001-3.08997,18.33002-3.08997   c8.17999,0,15.21997,1.26996,18.33002,3.08997C58.07501,39.52502,51.815,39.10497,45.125,39.10497z"/></g><text x="0" y="105" fill="#000000" font-size="5px" font-weight="bold" font-family="'Helvetica Neue', Helvetica, Arial-Unicode, Arial, Sans-serif">Created by iconcheese</text><text x="0" y="110" fill="#000000" font-size="5px" font-weight="bold" font-family="'Helvetica Neue', Helvetica, Arial-Unicode, Arial, Sans-serif">from the Noun Project</text></svg>