<svg xmlns="http://www.w3.org/2000/svg" xmlns:xlink="http://www.w3.org/1999/xlink" version="1.1" x="0px" y="0px" viewBox="0 0 90 112.5" enable-background="new 0 0 90 90" xml:space="preserve"><g><path d="M17.676,28.718c-1.352,0.111-2.516-0.513-2.516-0.513c3.393-0.45,2.643-4.591,2.643-4.591   c-3.771,0.681-3.756,3.191-4.079,2.96c-0.325-0.232-0.555-1.623-0.555-1.623c-1.409,1.147-1.488,4.816-1.488,4.816   C16.729,30.932,17.676,28.718,17.676,28.718z"/><path d="M85.851,46.149c0-5.506-4.479-9.983-9.984-9.983c-4.567,0-8.284,3.715-8.284,8.284c0,3.819,3.106,6.216,6.926,6.216   c4.961-0.141,3.157-3.992,3.157-3.992c0,1.575-1.583,1.719-3.157,1.719c-2.174,0-3.942-1.769-3.942-3.942   c0-2.923,2.377-5.301,5.301-5.301c3.86,0,7.001,3.14,7.001,7c0,5.03-4.093,9.121-9.122,9.121c-6.495,0-10.757-7.743-11.835-11.776   c-0.303-1.133-0.671-2.215-1.208-3.23c0.94,0.731,1.388,1.298,1.388,1.298c0.526-7.335-9.975-7.629-9.975-7.629   c2.036-1.679,8.59-1.587,8.59-1.587c-7.672-6.389-17.185-1.098-17.185-1.098c0.411-1.922,3.863-4.491,3.863-4.491   c-7.207,0.506-7.715,5.372-7.742,5.709c-11.516-0.276-23.889,2.7-26.105,9.873c-0.085,0.276-0.16,0.553-0.23,0.829   c-3.288-2.727-7.675-7.979-1.625-13.4c0,0-12.095,6.385,1.18,16.448c-0.411,8.978,6.879,18.073,17.927,21.487   c8.008,2.475,16.069,1.371,21.699-2.335c1.287-0.845,2.445-1.826,3.448-2.933c1.108-1.224,2.025-2.598,2.711-4.108   c0.123-0.272,0.454-1.242,0.812-2.334c1.286,0.981,9.472,6.688,19.422,1.114c1.095-0.515,2.102-1.187,2.989-1.991   c0.028-0.022,0.057-0.044,0.085-0.066c0,0-0.011,0.004-0.028,0.01C84.336,52.846,85.851,49.671,85.851,46.149z M49.973,54.532   c-4.206,0-7.615-3.409-7.615-7.614s3.409-7.615,7.615-7.615c4.205,0,7.615,3.41,7.615,7.615S54.178,54.532,49.973,54.532z"/><path d="M54.924,44.039c0,0.737-0.597,1.334-1.334,1.334c-0.736,0-1.333-0.597-1.333-1.334c0-0.693,0.531-1.264,1.209-1.328   c-0.513-0.23-1.082-0.359-1.683-0.359c-2.266,0-4.104,1.836-4.104,4.103s1.838,4.103,4.104,4.103s4.103-1.836,4.103-4.103   c0-1.02-0.372-1.95-0.986-2.669C54.915,43.867,54.924,43.952,54.924,44.039z M49.767,49.791c-0.289,0-0.523-0.234-0.523-0.521   c0-0.29,0.234-0.523,0.523-0.523c0.288,0,0.522,0.233,0.522,0.523C50.289,49.557,50.055,49.791,49.767,49.791z"/></g><text x="0" y="105" fill="#000000" font-size="5px" font-weight="bold" font-family="'Helvetica Neue', Helvetica, Arial-Unicode, Arial, Sans-serif">Created by Kai Aziz</text><text x="0" y="110" fill="#000000" font-size="5px" font-weight="bold" font-family="'Helvetica Neue', Helvetica, Arial-Unicode, Arial, Sans-serif">from the Noun Project</text></svg>