<svg xmlns="http://www.w3.org/2000/svg" xmlns:xlink="http://www.w3.org/1999/xlink" version="1.1" x="0px" y="0px" viewBox="0 0 100 125" enable-background="new 0 0 100 100" xml:space="preserve"><g><circle cx="57.8" cy="15.2" r="2.2"/><circle cx="42.2" cy="20.3" r="2.2"/><path d="M63.4,40.2c-2.5-0.9-4.2-3.3-4.2-6v-9.2c0-1.9,0.9-3.7,2.4-4.9c1.5-1.1,2.5-3,2.5-5c0-3.6-3-6.4-6.6-6.3   c-3.3,0.1-5.9,2.8-6,6.1c-0.1,2.1,0.9,4,2.5,5.2c1.5,1.2,2.4,2.9,2.4,4.8v7.9c0,3.5-2.8,6.3-6.3,6.3h-0.1c-3.5,0-6.3-2.8-6.3-6.3   v-2.8c0-1.9,0.9-3.7,2.4-4.9c1.5-1.1,2.5-3,2.5-5c0-3.6-3-6.4-6.6-6.3c-3.3,0.1-5.9,2.8-6,6.1c-0.1,2.1,0.9,4,2.5,5.2   c1.5,1.2,2.4,2.9,2.4,4.8v4.1c0,2.7-1.7,5-4.2,6c-9.5,3.5-16.6,16-16.6,31v0.5c0,8.7,4.8,15.8,10.8,15.8h3.6v2.3   c0,0.7,0.6,1.4,1.4,1.4h0c0.7,0,1.4-0.6,1.4-1.4v-2.3h25.8v2.3c0,0.7,0.6,1.4,1.4,1.4h0c0.7,0,1.4-0.6,1.4-1.4v-2.3h3.6   c6,0,10.8-7.1,10.8-15.8v-0.5C80,56.2,72.9,43.6,63.4,40.2z M53.2,15.2c0-2.5,2.1-4.6,4.6-4.6c2.5,0,4.6,2.1,4.6,4.6   s-2.1,4.6-4.6,4.6C55.2,19.8,53.2,17.7,53.2,15.2z M37.6,20.3c0-2.5,2.1-4.6,4.6-4.6c2.5,0,4.6,2.1,4.6,4.6c0,2.5-2.1,4.6-4.6,4.6   C39.7,24.9,37.6,22.8,37.6,20.3z M59.1,69L57,61.2v8.4c-0.7,0.2-1.4,0.3-2.2,0.4l-2.7-9.7v10c-1.4,0.1-2.8,0.1-4.2,0v-10l-2.7,9.7   c-0.8-0.1-1.5-0.3-2.2-0.4l0-8.4L40.9,69c-2-0.9-3.3-2.1-3.3-3.6c0-6.9,5.6-12.4,12.4-12.4s12.4,5.6,12.4,12.4   C62.4,66.9,61.1,68.1,59.1,69z"/></g><text x="0" y="115" fill="#000000" font-size="5px" font-weight="bold" font-family="'Helvetica Neue', Helvetica, Arial-Unicode, Arial, Sans-serif">Created by Alvaro Cabrera</text><text x="0" y="120" fill="#000000" font-size="5px" font-weight="bold" font-family="'Helvetica Neue', Helvetica, Arial-Unicode, Arial, Sans-serif">from the Noun Project</text></svg>