<svg xmlns="http://www.w3.org/2000/svg" xmlns:xlink="http://www.w3.org/1999/xlink" version="1.1" x="0px" y="0px" viewBox="0 0 100 125" enable-background="new 0 0 100 100" xml:space="preserve"><circle cx="33.354" cy="25.264" r="1.383"/><path d="M72.932,62.83h21.105c-13.576-13.577-24.678-6.045-28.948-2.021c-1.336-2.036-3.066-3.788-5.092-5.139  c0.952-1.674,1.503-3.605,1.503-5.669c0-0.033-0.006-0.064-0.006-0.098l6.58-6.58c0.781-0.781,0.781-2.047,0-2.828  c-0.781-0.781-2.047-0.781-2.828,0l-4.783,4.783c-0.861-1.9-2.208-3.535-3.904-4.715c3.392-1.456,6.198-4.008,7.983-7.207  c0.674,0.175,1.376,0.277,2.104,0.277c4.621,0,8.369-3.747,8.369-8.369c0-4.622-3.748-8.369-8.369-8.369  c-0.729,0-1.432,0.103-2.104,0.277c-2.53-4.536-7.119-7.757-12.503-8.417c0.003-0.046,0.014-0.091,0.014-0.138  c0-1.134-0.919-2.053-2.053-2.053s-2.053,0.919-2.053,2.053c0,0.047,0.011,0.091,0.014,0.137c-5.385,0.659-9.973,3.88-12.503,8.417  c-0.673-0.175-1.375-0.277-2.104-0.277c-4.622,0-8.369,3.747-8.369,8.369c0,4.623,3.747,8.369,8.369,8.369  c0.728,0,1.43-0.103,2.103-0.277c1.785,3.199,4.591,5.751,7.982,7.207c-1.695,1.181-3.041,2.815-3.903,4.715l-4.783-4.783  c-0.78-0.781-2.048-0.781-2.828,0c-0.781,0.781-0.781,2.047,0,2.828l6.58,6.581c0,0.033-0.006,0.064-0.006,0.098  c0,2.062,0.55,3.994,1.501,5.668c-2.025,1.351-3.756,3.103-5.091,5.139C30.64,56.784,19.54,49.254,5.963,62.83h21.105  c-5.778,2.112-11.952,7.443-11.952,20.581l17.5-17.501c-0.417,1.523-0.659,3.118-0.659,4.773c0,5.657,2.608,10.701,6.684,14.008  v5.007c0,1.104,0.896,2,2,2s2-0.896,2-2v-2.555c1.669,0.747,3.467,1.253,5.358,1.462V92c0,1.104,0.896,2,2,2s2-0.896,2-2v-3.396  c1.891-0.209,3.689-0.716,5.358-1.463v2.557c0,1.104,0.896,2,2,2s2-0.896,2-2v-5.009c4.075-3.307,6.684-8.35,6.684-14.006  c0-1.655-0.241-3.251-0.659-4.773l17.501,17.501C84.884,70.273,78.71,64.942,72.932,62.83z M66.646,18.859  c3.537,0,6.405,2.867,6.405,6.405c0,3.538-2.868,6.406-6.405,6.406c-3.538,0-6.405-2.868-6.405-6.406  C60.241,21.726,63.108,18.859,66.646,18.859z M33.354,31.669c-3.538,0-6.406-2.868-6.406-6.406c0-3.538,2.868-6.405,6.406-6.405  c3.537,0,6.406,2.867,6.406,6.405C39.76,28.802,36.892,31.669,33.354,31.669z M45.652,35.016c-0.764,0-1.383-0.619-1.383-1.383  s0.619-1.382,1.383-1.382s1.383,0.619,1.383,1.382S46.416,35.016,45.652,35.016z M50,35.016c-0.764,0-1.383-0.619-1.383-1.383  S49.236,32.25,50,32.25s1.383,0.619,1.383,1.382S50.764,35.016,50,35.016z M54.348,35.016c-0.764,0-1.383-0.619-1.383-1.383  s0.619-1.382,1.383-1.382s1.383,0.619,1.383,1.382S55.111,35.016,54.348,35.016z"/><circle cx="66.646" cy="25.264" r="1.383"/><text x="0" y="115" fill="#000000" font-size="5px" font-weight="bold" font-family="'Helvetica Neue', Helvetica, Arial-Unicode, Arial, Sans-serif">Created by EliRatus</text><text x="0" y="120" fill="#000000" font-size="5px" font-weight="bold" font-family="'Helvetica Neue', Helvetica, Arial-Unicode, Arial, Sans-serif">from the Noun Project</text></svg>