<svg xmlns="http://www.w3.org/2000/svg" xmlns:xlink="http://www.w3.org/1999/xlink" version="1.1" x="0px" y="0px" viewBox="0 0 100 125" enable-background="new 0 0 100 100" xml:space="preserve"><g display="none"><g display="inline"><circle fill="#000000" cx="48.748" cy="25.232" r="3.029"/><path fill="#000000" d="M92.473,70.435c0.171,0.896-0.541,1.323-1.318,1.445c-0.626,0.098-2.653,0.75-2.496-1.687    c0.278,0.744,0.885,1.212,1.721,1.002c1.383-0.347,2.259-1.395,1.846-2.318c-0.191,0.612-0.574,1.468-1.626,1.456    c-0.825-0.011-1.789,0.208-1.581-1.534c0.042,0.482,0.263,0.771,0.643,0.787c0.657,0.029,1.988-0.359,1.809-1.31    c-0.544,0.994-0.902,0.812-1.38,0.772c-0.366-0.03-0.78-0.432-0.571-1.687c2.896-10.971,2.458-25.435-0.727-37.033    c0.461-1.509,0.705-3.082,0.705-4.698c0-11.363-12.051-20.574-26.915-20.574c-3.771,0-7.361,0.594-10.62,1.665    c-1.084-0.098-2.189-0.148-3.313-0.148c-3.35,0-6.542,0.445-9.455,1.25c-1.156-0.112-2.333-0.17-3.529-0.17    C20.386,7.654,8,17.089,8,28.727c0,3.187,0.929,6.208,2.592,8.916c-1.871,12.729-0.155,28.417,4.894,39.164l0.001,0.009    c0.005,0.01,0.011,0.02,0.016,0.029c0.295,0.625,0.599,1.237,0.917,1.828c1.199,1.955,2.996,1.09,3.929-0.441    c0.932-1.531-0.134-1.863-0.6-2.33c0.69,0.594,0.399,1.373-0.133,1.951c-0.43,0.467-1.61,2.238-3.003,0.232    c0.681,0.41,1.447,0.399,1.971-0.286c0.865-1.132,0.898-2.497,0-2.963c0.232,0.6,0.466,1.507-0.366,2.151    c-0.652,0.506-1.269,1.276-2.192-0.216c0.333,0.352,0.686,0.439,0.994,0.216c0.533-0.387,1.332-1.519,0.599-2.151    c0.193,1.117-0.199,1.198-0.599,1.465c-0.344,0.229-1.032,0.137-1.738-1.444c-3.774-13.618-3.879-25.527-2.835-34.667    c4.933,5.785,13.487,9.611,23.217,9.611c0.482,0,0.96-0.01,1.437-0.027c1.696,4.879,7.237,8.518,13.917,8.796    c-0.372,3.512-1.798,11.517-1.705,22.591c0.1,11.818-1.098,14.248-4.727,15.779c1.064,0,4.594,0.135,7.259,0    c-2.064-12.826-1.427-30.77-0.235-38.354c0.078,0.001,0.156,0.004,0.235,0.004c0.638,0,1.267-0.031,1.884-0.091    c1.199,7.534,1.851,25.564-0.221,38.441c2.665,0.135,6.192,0,7.259,0c-3.629-1.531-4.828-3.961-4.729-15.779    c0.095-11.226-1.371-19.293-1.718-22.729c7.263-0.928,12.804-5.862,12.804-11.811c0-0.238-0.009-0.472-0.026-0.706    c9.31-1.204,16.994-6.059,20.441-12.571c2.092,8.642,3.365,19.92,1.52,33.287c0,0,0,0,0,0.001    c-0.178,0.623-0.34,1.243-0.486,1.857l-0.004,0.006c-0.002,0.012-0.004,0.023-0.005,0.035c-0.16,0.673-0.302,1.341-0.421,2    c-0.279,2.278,1.665,2.719,3.348,2.101C93.175,72.015,92.548,71.09,92.473,70.435z M54.15,12.877    c-2.26-1.721-10.106-2.863-14.328,1.862C42.653,8.703,52.2,9.742,54.15,12.877z M48.748,15.612c5.314,0,9.621,4.307,9.621,9.62    c0,5.313-4.307,9.62-9.621,9.62c-5.312,0-9.62-4.307-9.62-9.62C39.128,19.918,43.435,15.612,48.748,15.612z M36.737,44.808    c0.745,0.089,1.55,0.141,2.402,0.16c0.092-1.585,0.792-2.479,1.701-3.208c1.026,0.942,1.137,2.393,1.147,3.167    c0.358-0.016,0.72-0.037,1.087-0.061c0.341-0.891,0.928-1.477,1.623-1.967c0.499,0.517,0.746,1.153,0.864,1.755    c0.633-0.064,1.272-0.138,1.915-0.219c0.292-0.478,0.676-0.862,1.106-1.209c0.312,0.286,0.539,0.617,0.707,0.963    c0.72-0.105,1.441-0.217,2.157-0.336c0.172-0.228,0.362-0.442,0.568-0.644c0.187,0.138,0.348,0.295,0.49,0.463    c1.555-0.273,3.078-0.571,4.521-0.881c0.078-0.251,0.187-0.502,0.339-0.741c0.309,0.136,0.604,0.29,0.881,0.475    c0.663-0.147,1.302-0.298,1.916-0.447c-0.008-0.449,0.062-0.922,0.269-1.378c0.635,0.175,1.229,0.427,1.755,0.868    c0.216-0.057,0.424-0.113,0.629-0.17c-0.217-0.761-0.496-2.129,0.184-3.291c1.062,0.419,1.979,1.049,2.538,2.476    c0.738-0.249,1.285-0.466,1.589-0.638C61.434,49.668,42.022,47.603,36.737,44.808z"/></g></g><g display="none"><g display="inline"><circle fill="#000000" cx="30.144" cy="41.808" r="1.774"/><circle fill="#000000" cx="51.531" cy="41.146" r="1.461"/><circle fill="#000000" cx="40.99" cy="38.324" r="0.726"/><circle fill="#000000" cx="44.264" cy="55.686" r="2.085"/><circle fill="#000000" cx="27.764" cy="55.19" r="1.308"/><path fill="#000000" d="M95.522,93.83c-0.64-0.15-4.718-1.299-4.718-1.299s0.209-1.562,0.294-2.623    c1.193-0.775,2.076-1.912,2.448-3.23c0.474-0.438,0.253-2.018,1.025-2.289c-0.395-0.012-0.431-0.221-0.77-0.301    c0.048-0.387-0.129-0.674-0.044-1.068c-0.067,0.002-0.288,0.012-0.346-0.008c0.01,0.012,0.132-0.174,0.104-0.232    c-0.025,0.018-0.272,0.064-0.27,0.064c0.031-0.477-0.071-0.734,0.207-1.182c-0.172-0.127-0.156-0.098-0.259-0.283    c-0.076,0.061-0.152,0.121-0.228,0.182c-0.077-0.086,0.054-0.297-0.045-0.35c-0.216,0.033-0.573-0.006-0.793-0.041    c-0.185-0.457-0.274-0.838-0.292-1.26c-0.091,0.123-0.316,0.328-0.397,0.434c-0.009-0.055-0.002-0.369-0.05-0.389    c0.031-0.016-0.199-0.014-0.262,0.023c0.005-0.043,0.012-0.084,0.013-0.125c-0.076,0.023-0.495,0.178-0.543,0.201    c-0.098-0.133,0.019-0.344-0.01-0.488c-0.194,0.129-0.195,0.145-0.415,0.207c0.371-0.453,0.481-0.963,0.011-1.252    c0.081-0.381-0.041-0.854,0.091-1.205c-0.078-0.014-0.156-0.031-0.232-0.049c0.123-0.193,0.172-0.666,0.351-0.904    c-0.09-0.041-0.286,0.004-0.351-0.064c-0.072-0.387-0.067-0.402-0.279-0.701c0.01-0.139,0.08-0.229,0.098-0.363    c-0.123-0.133-0.241-0.104-0.373-0.191c-0.094-0.326,0.02-0.25-0.244-0.389c-0.261-0.209-0.426-0.629-0.35-1.098    c-0.126-0.027-0.264,0.016-0.38-0.043c-0.2-0.227-0.079-0.293-0.417-0.42c-0.11-0.646,0.027-0.609-0.567-0.832    c0.062-0.182,0.126-0.322,0.104-0.51c-0.322-0.02-0.57-0.23-0.939-0.189c0.029-0.143,0.121-0.164,0.11-0.33    c-0.215-0.541-0.696-0.795-1.297-0.375c-0.002-0.002-0.006-0.004-0.009-0.008c0.246-0.32,0.324-0.762,0.468-1.061    c-0.388,0.215-0.653,0.197-0.958,0.539c-0.005-0.092-0.171-0.445-0.155-0.67c-0.211,0.129-0.435,0.1-0.67,0.336    c-0.005-0.002-0.009-0.004-0.013-0.006c0.131-0.293,0.05-0.617,0.123-0.893c-0.351,0.023-0.874-0.023-1.053,0.006    c-0.103,0.01-0.2,0.02-0.302,0.023c0.09-0.908,0.163-1.867,0.624-2.514c-0.083,0.016-0.248,0.086-0.337,0.107    c0.142-1.434-0.87-1.994-0.743-3.301c-0.079-0.012-0.159-0.025-0.239-0.037c0.138-0.668-0.275-1.102-0.295-1.795    c-0.018-0.625,0.239-1.164,0.261-1.75c-0.267,0.494-0.485,0.41-0.802,0.623c0.15-0.305,0.238-0.92,0.384-1.219    c-0.407,0.027-1.63-1.111-1.797-1.543c-0.312-0.805-0.212-2.045-0.424-2.77c-0.629-0.076-1.126-0.262-1.717-0.207    c-0.056-0.072-0.112-0.143-0.169-0.213c0.07-0.389,0.235-0.789,0.466-1.121c-0.278,0.049-0.642-0.079-0.918-0.029    c0.101-0.139,0.18-0.569,0.365-0.771c-0.151,0.011-0.45-0.087-0.638-0.067c0.047-0.767-0.593-1.019-1.245-0.695    c-0.156-0.071-0.097-0.276-0.16-0.342c-0.192,0.061-0.312,0.11-0.542,0.063c0.055-0.395-0.192-0.736-0.185-1.074    c-0.117,0-0.444,0.072-0.542,0.104c-0.017-0.15-0.122-0.437-0.151-0.626c-0.599,0.122-0.76-0.089-0.696-0.726    c-0.409,0.052-0.694-0.194-1.071-0.181c0.027-0.195-0.061-0.459-0.041-0.654c-0.48-0.097-0.935-0.113-1.336-0.042    c-0.01-0.224-0.21-0.431-0.164-0.763c-0.579,0.049-1.236,0.005-1.767,0.147c-0.104-0.05-0.209-0.099-0.313-0.147    c0.132-0.25,0.284-0.499,0.388-0.741c-0.283-0.063-0.496-0.294-0.803-0.328c-0.267-0.616-0.053-1.239-0.03-1.904    c-0.202,0.023-0.447-0.052-0.655-0.028c0.174-0.292,0.207-0.907,0.384-1.221c-0.318,0.07-0.771-0.038-1.089,0.098    c0.158-0.965-0.32-1.449-0.972-1.95c-0.082-0.146,0.006-0.302-0.013-0.455c-0.154-0.001-0.385,0.029-0.547,0.036    c0.001-0.199,0.005-0.458-0.042-0.654c-0.696-0.044-1.986-0.929-1.809-1.785c-0.43-0.172-0.886-0.238-1.353-0.199    c0.133-0.29,0.08-0.639,0.357-0.952c-0.693,0.321-0.949-0.144-0.815-0.818c-0.581-0.212-1.081-0.344-1.502-0.704    c-1.084,0.559-1.476-0.669-1.093-1.52c-0.383,0.441-0.832,0.788-1.397,0.792c0.059-0.364-0.028-0.832,0.132-1.196    c-0.768,0.041-1.1-0.871-2.22-0.758c-0.032-0.132-0.004-0.246-0.042-0.376c-0.514,0.064-1.044,0.176-1.601,0.106    c0.162-0.316,0.088-0.747,0.219-1.036c-0.489,0.188-1.129,0.206-1.635-0.09c0.003-0.159-0.044-0.351-0.042-0.514    c-0.599,0.092-1.229,0.364-1.773,0.669c0.102-0.345,0.049-0.716,0.257-1.074c-0.882,1.097-1.714,0.008-2.62-0.191    c-0.025-0.893-0.901-0.776-1.521-0.56c0.237-0.377,0.401-0.877,0.58-1.231c-0.578,0.649-3.062,1.752-3.558,0.584    c-0.531-0.13-1.04,0.172-1.388,0.54c-0.032-0.177-0.12-0.354-0.142-0.554c-0.106,0.097-0.521,0.232-0.648,0.396    c-0.011-0.166-0.05-0.359-0.045-0.524c-0.813,0.289-3.103,0.436-3.973,0.135c-0.258,0.156-0.433,0.162-0.719,0.282    c-0.036,0.086-0.063,0.191-0.088,0.274c-0.015,0-0.03,0-0.046,0.001c-0.011-0.082-0.027-0.165-0.016-0.254    c-0.025,0.093-0.06,0.179-0.101,0.258C19.024,30.893,4.895,44.22,4.895,60.551c0,13.826,10.126,25.498,23.996,29.213    c-0.49,0.518-0.939,1.004-1.252,1.35c-0.696,0.764,0,1.598,0.557,2.227c0.557,0.625,2.644,3.061,3.2,3.408    c0.558,0.348,0.766,0.139,0.418-0.418s-2.435-4.244-2.435-4.244s1.335-1.027,2.137-1.723c1.753,0.332,3.557,0.537,5.399,0.607    c-0.254,0.814-0.486,1.598-0.636,2.121c-0.285,0.996,0.709,1.436,1.485,1.75c0.777,0.316,3.727,1.574,4.381,1.639    c0.653,0.066,0.747-0.213,0.189-0.559c-0.56-0.344-4.064-2.727-4.064-2.727s0.611-1.246,1.031-2.207    c3.274-0.084,6.43-0.596,9.404-1.475c0.905,0.314,1.837,0.586,2.79,0.803c-0.109,0.068-0.213,0.133-0.305,0.191    c-0.876,0.551-0.43,1.541-0.062,2.293c0.368,0.754,1.725,3.66,2.167,4.145s0.7,0.34,0.515-0.291    c-0.185-0.629-1.205-4.74-1.205-4.74s1.443-0.584,2.406-1.031C55.851,90.961,56.702,91,57.564,91c0.049,0,0.097-0.002,0.146-0.002    c-0.243,0.289-0.461,0.553-0.634,0.764c-0.656,0.799,0.081,1.598,0.668,2.195c0.589,0.596,2.796,2.924,3.369,3.244    c0.573,0.318,0.771,0.1,0.396-0.439c-0.374-0.537-2.646-4.117-2.646-4.117s1.312-1.119,2.073-1.852    c2.739-0.34,5.336-1.088,7.718-2.172c0.623,0.412,1.292,0.779,1.996,1.094c-0.292,0.65-0.558,1.254-0.739,1.684    c-0.405,0.949,0.525,1.51,1.257,1.92c0.731,0.408,3.503,2.023,4.144,2.17c0.64,0.145,0.768-0.121,0.257-0.531    c-0.512-0.412-3.694-3.211-3.694-3.211s0.403-0.613,0.828-1.297c0.657,0.184,1.336,0.322,2.033,0.416    c-0.358,0.592,0.058,1.359,0.406,1.965c0.42,0.727,1.977,3.529,2.453,3.982c0.476,0.453,0.721,0.289,0.491-0.326    c-0.229-0.615-1.533-4.646-1.533-4.646s0.955-0.465,1.812-0.918c1.723-0.174,3.347-0.627,4.806-1.309    c0.18,0.139,0.369,0.27,0.566,0.391c-0.364,0.428-0.69,0.82-0.931,1.113c-0.656,0.799,0.081,1.598,0.668,2.193    c0.588,0.598,2.796,2.926,3.37,3.244c0.573,0.32,0.771,0.1,0.396-0.438c-0.377-0.537-2.647-4.115-2.647-4.115    s0.656-0.561,1.311-1.148C86.366,90.947,86.848,91,87.344,91c0.505,0,0.998-0.055,1.47-0.152c0.018,0.854,0.045,1.672,0.069,2.219    c0.046,1.033,1.128,1.135,1.964,1.188c0.835,0.053,4.033,0.311,4.674,0.166C96.16,94.273,96.16,93.979,95.522,93.83z     M19.979,49.113c-0.271,1.532-1.733,2.554-3.264,2.282c-1.532-0.272-2.553-1.733-2.281-3.265c0.271-1.531,1.732-2.553,3.264-2.281    S20.251,47.582,19.979,49.113z M31.626,55.875c-0.378,2.133-2.414,3.555-4.546,3.178c-2.134-0.377-3.556-2.414-3.178-4.547    c0.377-2.133,2.413-3.556,4.546-3.178C30.582,51.706,32.004,53.742,31.626,55.875z M35.385,42.736    c-0.513,2.895-3.275,4.825-6.17,4.312c-2.895-0.513-4.825-3.275-4.312-6.169c0.513-2.895,3.275-4.826,6.169-4.313    C33.968,37.08,35.898,39.842,35.385,42.736z M38.846,37.943c0.21-1.183,1.34-1.973,2.524-1.763    c1.184,0.21,1.973,1.339,1.763,2.523c-0.208,1.183-1.339,1.973-2.523,1.763S38.637,39.128,38.846,37.943z M50.421,56.777    c-0.603,3.4-3.848,5.668-7.249,5.066c-3.4-0.604-5.668-3.848-5.066-7.248c0.604-3.401,3.848-5.669,7.249-5.067    C48.754,50.132,51.022,53.377,50.421,56.777z M55.848,41.911c-0.422,2.383-2.697,3.973-5.081,3.551s-3.974-2.697-3.552-5.081    c0.423-2.384,2.697-3.974,5.082-3.552C54.679,37.251,56.27,39.526,55.848,41.911z"/><circle fill="#000000" cx="17.207" cy="48.623" r="0.939"/></g></g><g display="none"><g display="inline"><path fill="#000000" d="M91.686,93.544c3.68,0.617,4.199-2.318,0-2.164c-4.2,0.155-5.118,0.465-7.665,2.473    c1.979-9.875,3.897-25.092-23.018-26.474c7.257-12.633,18.359-32.117,22.405-40.062l0,0c3.043-5.74,11.186-11.213,9.42-19.045    c-0.695-3.013-2.317-5.794-2.549,0c-0.232,5.793-5.497,9.717-12.531,10.137c-6.868,0.421-18.878,0.936-30.389,1.451    c0,0-11.109,0.463-23.161-0.463c-0.237-0.019-0.467-0.034-0.692-0.048c0.008,0,0.015,0,0.021,0    c-4.025-0.483-10.617-5.118-10.103-10.166s-1.907-4.836-2.987,0c-1.957,8.764,5.908,13.68,8.431,18.324    c1.838,3.341,14.396,26.676,22.298,40.831C17.07,66.762,12.832,78.902,12.291,92.308c-1.297-0.813-2.307-1.113-3.141-1.391    c-4.173-1.388-4.944,1.854-1.545,2.009c3.4,0.154,2.009,1.545-0.463,2.008c-4.646,0.872-4.017,4.172,1.082,2.688    c5.099-1.483,11.742-1.915,14.678-1.606c2.936,0.31,3.244-1.391,0.772-2.162c-2.472-0.773-4.683-1.065-8.961-0.465    c-0.148-20.689,15.676-22.154,28.41-21.567c2.089,3.692,3.639,6.332,4.236,7.133c2.767,3.708,4.417,4.867,6.967,0    c0,0,1.779-3.066,4.479-7.754c13.311,0.224,27.519,6.067,22.037,22.652c-4.326-0.772-6.335-0.772-8.344,0    s-2.163,3.708,1.699,2.472c3.863-1.236,12.825-0.154,16.533,1.082s4.381-0.927,0.955-2.009    C88.258,94.316,88.005,92.926,91.686,93.544z M43.409,36.727c0.06-0.006,0.12-0.012,0.181-0.018    C43.529,36.715,43.469,36.721,43.409,36.727z M43.009,36.773c0.072-0.009,0.145-0.018,0.218-0.026    C43.153,36.755,43.081,36.764,43.009,36.773z M61.567,38.398c0.169,0.03,0.339,0.056,0.509,0.078    C61.906,38.454,61.736,38.428,61.567,38.398z M62.095,38.478c0.516,0.066,1.028,0.1,1.535,0.101    C63.123,38.578,62.61,38.544,62.095,38.478z M63.633,38.579c0.166,0,0.332-0.003,0.497-0.01    C63.965,38.575,63.799,38.579,63.633,38.579z M64.151,38.567c0.501-0.021,0.995-0.074,1.479-0.156    C65.146,38.494,64.652,38.546,64.151,38.567z M70.657,36.057c0.106-0.096,0.211-0.194,0.312-0.295    C70.868,35.863,70.764,35.961,70.657,36.057z M68.887,24.961c-0.507-0.021-1.044,0.007-1.604,0.075    C67.843,24.969,68.38,24.941,68.887,24.961z M67.272,25.038c-0.562,0.068-1.148,0.177-1.752,0.316    C66.124,25.215,66.711,25.106,67.272,25.038z M40.09,26.625c-0.014-0.002-0.028-0.005-0.044-0.008    C40.062,26.619,40.076,26.622,40.09,26.625z M39.962,26.603c-0.019-0.003-0.038-0.007-0.058-0.01    C39.924,26.597,39.943,26.6,39.962,26.603z M39.824,26.579c-0.023-0.004-0.047-0.008-0.071-0.013    C39.777,26.57,39.801,26.575,39.824,26.579z M39.677,26.552c-0.03-0.006-0.062-0.012-0.094-0.018    C39.614,26.541,39.646,26.546,39.677,26.552z M39.532,26.525c-0.422-0.08-0.942-0.181-1.521-0.277    C38.59,26.344,39.11,26.445,39.532,26.525z M38.011,26.248c-0.076-0.013-0.152-0.025-0.23-0.038    C37.858,26.223,37.935,26.235,38.011,26.248z M37.763,26.208c-0.073-0.012-0.148-0.023-0.224-0.035    C37.614,26.184,37.689,26.196,37.763,26.208z M37.518,26.169c-0.075-0.011-0.151-0.022-0.228-0.033    C37.366,26.147,37.442,26.158,37.518,26.169z M37.271,26.133c-0.082-0.011-0.163-0.022-0.246-0.033    C37.107,26.111,37.188,26.122,37.271,26.133z M36.594,26.048c-0.215-0.024-0.432-0.044-0.65-0.062    C36.162,26.004,36.379,26.024,36.594,26.048z M35.916,25.985c-0.107-0.008-0.215-0.015-0.321-0.021    C35.701,25.97,35.809,25.977,35.916,25.985z M35.594,25.964c-0.11-0.006-0.221-0.011-0.331-0.015    C35.373,25.953,35.483,25.958,35.594,25.964z M35.245,25.949c-0.099-0.003-0.198-0.005-0.297-0.006    C35.047,25.944,35.146,25.946,35.245,25.949z M34.901,25.942c-0.209-0.001-0.417,0.003-0.623,0.013    C34.484,25.945,34.692,25.941,34.901,25.942z M34.222,25.958c-0.09,0.005-0.179,0.011-0.268,0.019    C34.043,25.97,34.132,25.963,34.222,25.958z M33.914,25.98c-0.101,0.009-0.201,0.02-0.3,0.032    C33.713,26,33.813,25.989,33.914,25.98z M33.574,26.017c-0.085,0.011-0.168,0.023-0.251,0.037    C33.406,26.041,33.489,26.028,33.574,26.017z M33.26,26.064c-0.189,0.033-0.375,0.073-0.554,0.122    C32.885,26.138,33.07,26.097,33.26,26.064z M32.646,26.203c-0.075,0.021-0.149,0.043-0.221,0.067    C32.496,26.246,32.57,26.224,32.646,26.203z M32.377,26.286c-0.086,0.029-0.17,0.061-0.253,0.094    C32.207,26.347,32.291,26.315,32.377,26.286z M32.086,26.396c-0.069,0.03-0.138,0.061-0.205,0.093    C31.948,26.457,32.017,26.426,32.086,26.396z M31.824,26.518c-0.077,0.039-0.152,0.08-0.226,0.124    C31.672,26.598,31.747,26.557,31.824,26.518z M36.88,37.689c0.084,0,0.168,0,0.253-0.001c-0.692-1.048-1.444-2.077-2.372-2.314    c-1.175-0.301-0.331-0.425-1.188,0.245c-0.187,0.146-0.363,0.411-0.532,0.741c0.53,0.458,1.099,0.773,1.692,0.981    c-1.761-0.617-3.302-2.177-4.26-5.576c-0.799-2.829-0.153-4.353,1.125-5.125c0.721,0.94,1.635,1.855,2.271,2.582    c0.579-0.525,1.8-2.944,2.728-3.176c0.144,0.016,0.285,0.033,0.426,0.051c1.267,0.561,1.82,4.257,2.876,5.132    c1.222-1.282,1.847-2.876,2.764-4.25c-0.036-0.005-0.071-0.01-0.107-0.015c0.723,0.098,1.462,0.195,2.215,0.286    c-0.006-0.001-0.013-0.002-0.02-0.002c0.301,0.469,0.612,0.934,0.86,1.439c0.432,0.881,0.483,1.898,1.244,2.524    c0.894-1.029,1.79-2.254,2.479-3.514l0,0c0.467,0.032,0.934,0.06,1.399,0.082c-0.001,0-0.002,0-0.004,0    c0.683,1.667,1.118,3.591,2.759,4.575c1.144-1.346,1.792-3.074,2.569-4.635c0.807-0.067,1.594-0.164,2.353-0.299c0,0,0,0-0.001,0    c0.951,1.685,2.148,3.67,3.399,3.834c0.381-2.06,2.471-3.523,2.908-5.7c-0.541,0.145-1.093,0.312-1.65,0.494    c0.838-0.274,1.661-0.512,2.456-0.696c0.844,1.391,0.37,4.896,2.026,5.023c0.466,0.036,1.801-1.564,2.136-1.917    c0.802-0.845,1.319-1.769,1.822-2.725c-0.709-0.498-1.599-0.733-2.614-0.774c2.48,0.1,4.214,1.36,4.38,4.771    c0.11,2.255-0.642,4.177-1.941,5.648c0.102-0.115,0.2-0.232,0.295-0.353c-0.221-0.317-0.479-0.599-0.824-0.628    c-1.063-0.091-1.724,1.466-2.203,3.052c0.293-0.146,0.576-0.306,0.849-0.479c-1.119,0.708-2.42,1.198-3.812,1.438    c-0.631-1.001-1.214-2.107-2.065-2.656c-1.274-0.819-1.12-0.117-1.566,1.413c-0.128,0.442-0.274,0.86-0.437,1.23    c-0.27-0.047-0.54-0.103-0.81-0.168c-0.953-0.233-1.941-0.44-2.945-0.624c0.001,0,0.002,0,0.002,0    c-0.604-0.829-1.216-1.5-2.163-2.297c-0.6,0.386-1.007,1.029-1.356,1.759c0.002,0,0.002,0,0.004,0    c-1.633-0.204-3.252-0.345-4.784-0.423c0.002,0,0.005,0,0.007,0c-0.259-0.48-0.493-0.94-0.699-1.341    c-0.357,0.168-0.675,0.681-0.993,1.279c-1.49-0.031-2.858,0.003-4.024,0.104c-0.417-0.874-0.848-1.713-1.411-2.005    c-0.7,0.451-0.452,0.917-0.823,1.561c-0.165,0.287-0.351,0.582-0.551,0.876c0.006-0.001,0.012-0.002,0.018-0.003    C39.703,37.391,38.27,37.702,36.88,37.689z M36.82,37.688c-0.065-0.001-0.131-0.003-0.195-0.005    C36.689,37.685,36.755,37.687,36.82,37.688z M36.559,37.68c-0.071-0.003-0.142-0.008-0.213-0.013    C36.417,37.672,36.487,37.677,36.559,37.68z M36.31,37.665c-0.171-0.013-0.341-0.033-0.511-0.059    C35.969,37.631,36.139,37.651,36.31,37.665z M35.76,37.599c-0.075-0.012-0.149-0.025-0.223-0.04    C35.61,37.574,35.685,37.587,35.76,37.599z M35.507,37.554c-0.258-0.052-0.512-0.121-0.762-0.208    C34.995,37.434,35.249,37.502,35.507,37.554z M47.049,27.505C47.032,27.504,47.017,27.502,47,27.5    C47.017,27.502,47.032,27.504,47.049,27.505z M45.933,27.388c-0.051-0.006-0.101-0.011-0.151-0.017    C45.832,27.377,45.882,27.382,45.933,27.388z M54.76,27.803c-0.002,0-0.004,0-0.006,0C54.756,27.803,54.758,27.803,54.76,27.803z     M54.104,27.825c-0.005,0-0.01,0-0.015,0C54.095,27.825,54.1,27.825,54.104,27.825z M53.445,27.836c-0.01,0-0.019,0-0.027,0    C53.427,27.836,53.436,27.836,53.445,27.836z M52.776,27.837c-0.011,0-0.022,0-0.033,0C52.754,27.837,52.766,27.837,52.776,27.837    z M52.104,27.828c-0.013,0-0.026,0-0.039-0.001C52.077,27.828,52.091,27.828,52.104,27.828z M51.421,27.81    c-0.01,0-0.021-0.001-0.031-0.001C51.4,27.809,51.411,27.809,51.421,27.81z M60.728,26.861c-0.066,0.021-0.134,0.041-0.201,0.061    C60.594,26.901,60.661,26.882,60.728,26.861z M60.049,27.058c-0.074,0.02-0.148,0.04-0.224,0.059    C59.9,27.098,59.975,27.078,60.049,27.058z M59.312,27.24c-0.061,0.014-0.12,0.028-0.182,0.041    C59.191,27.268,59.251,27.253,59.312,27.24z M61.374,26.642c0.282-0.104,0.563-0.206,0.845-0.304    C61.938,26.436,61.656,26.538,61.374,26.642z M62.226,26.335c0.279-0.098,0.558-0.192,0.836-0.283    C62.783,26.143,62.505,26.238,62.226,26.335z M71.007,35.723c0.104-0.104,0.204-0.21,0.302-0.319    C71.211,35.513,71.11,35.619,71.007,35.723z M70.611,36.098c-0.107,0.095-0.216,0.187-0.328,0.277    C70.396,36.285,70.504,36.193,70.611,36.098z M70.236,36.413c-0.114,0.09-0.23,0.178-0.349,0.263    C70.006,36.591,70.122,36.503,70.236,36.413z M69.846,36.705c-0.122,0.087-0.247,0.171-0.375,0.252    C69.599,36.876,69.724,36.792,69.846,36.705z M56.086,37.317c-0.016-0.002-0.032-0.005-0.048-0.007    C56.054,37.312,56.07,37.315,56.086,37.317z M48.583,36.607c0.056,0.001,0.11,0.003,0.165,0.006    C48.693,36.611,48.639,36.609,48.583,36.607z M42.871,36.79c-0.118,0.016-0.235,0.032-0.348,0.049    C42.636,36.822,42.752,36.806,42.871,36.79z M42.17,36.897c-0.006,0.001-0.011,0.002-0.017,0.003    C42.159,36.899,42.164,36.898,42.17,36.897z M41.804,36.965c-0.01,0.001-0.02,0.003-0.029,0.005    C41.784,36.968,41.794,36.966,41.804,36.965z M41.425,37.039c-0.012,0.002-0.025,0.005-0.038,0.008    C41.399,37.043,41.413,37.041,41.425,37.039z M51.084,66.598c-2.953,0-5.347-2.394-5.347-5.347c0-1.574,0.682-2.989,1.765-3.968    c0.077,0.035,0.153,0.072,0.231,0.105c1.187,0.503,2.266,1.062,3.564,1.132c0.943,0.051,2.368-0.33,3.595-1.02    c0.95,0.966,1.537,2.289,1.537,3.75C56.43,64.204,54.036,66.598,51.084,66.598z"/><circle fill="#000000" cx="51.084" cy="61.251" r="1.545"/></g></g><g><g><circle fill="#000000" cx="60.662" cy="25.302" r="2.287"/><circle fill="#000000" cx="33.405" cy="25.302" r="2.287"/><path fill="#000000" d="M95.746,39.946c-0.449-1.198-3.191-3.454-5.092-4.254c-0.219-1.038-0.777-2.039-1.727-2.777    c-7.371-4.193-14.234,5.973-9.531,15.376c3.68,7.36-3.639,10.173-8.621,11.013c-1.816-9.788-9.121-23.191-12.188-27.711    c3.24,2.097,10.865-2.668,8.387-9.149c-2.479-6.481-8.768-5.528-12.01-4.384c-3.238,1.144-4.192,9.531-2.668,12.771    c0.021,0.042,0.043,0.091,0.068,0.143c-0.473,0.297-0.979,0.772-1.551,1.408c1.006,0.218,1.834,1.374,2.524,2.023    c-0.613,0.378-1.402,0.614-1.916,1.051c1.59,0.935,1.398,1.578-0.463,2.548c1.069-0.098,1.799,0.38,2.76,0.493    c0.041,0.792-1.094,1.467-1.604,2.019c1.117,0.332,2.656-0.006,3.773,0.672c-1.668,0.775-2.488,2.013-3.758,3.382    c0.994,0.194,2.172-0.295,3.244-0.199c-0.021,0.552-0.252,0.483-0.549,0.885c-0.912,1.228-2.283,1.813-2.768,3.449    c0.934-0.366,5.568-0.063,6.262,0.839c-1.771,1.085-3.5,2.226-5.193,3.437c1.816,0.072,3.406-0.066,4.312,1.915    c0.408-0.113,0.766-0.077,1.186-0.129c-2.072,0.398-3.67,1.706-5.631,2.554c1.734-0.074,5.123,1.443,6.439,2.511    c-2.004,0.305-4.797,0.465-6.562,1.397c1.418,0.173,2.719,1.836,3.732,2.699c0,0.003,0.002,0.004,0.004,0.005    c-1.619,1.08-3.83,1.727-6.789,1.779c-2.275,0.04-4.191-0.271-5.795-0.862c1.246-1.025,2.66-2.041,3.563-3.121    c-0.778-0.408-1.807-0.216-2.666-0.493c-1.806-0.582-2.757-0.755-4.795-0.741c1.526-0.48,4.253-1.855,4.939-3.434    c-1.185-0.534-2.521-0.823-3.655-1.462c-0.675-0.381-1.25-1.026-1.946-1.285c1.846-0.628,3.402-2.271,5.356-2.483    c-0.684-1.294-3.065-2.241-4.419-2.802c1.446-0.689,2.874-1.442,4.299-2.131c-1.346-1.481-3.098-2.973-4.91-3.94    c1.2-0.759,2.782-1.435,3.654-2.544c-1.115-0.303-2.162-0.901-3.295-1.166c-0.03-1.288,2.688-2.146,3.392-3.12    c-0.725-0.75-1.882-1.717-2.811-2.326c0.051-0.106,0.101-0.21,0.15-0.311c2.951-0.594,2.302-1.142,1.306-2.137    c2.908-4.033-0.854-10.716-5.709-13.294c-2.487-1.321-9.149-2.669-10.865,4.384c-1.715,7.052,4.766,12.58,9.912,10.483    c-0.963,2.34-4.807,11.832-7.014,20.588c-1.941-6.092-5.445-12.73-10.747-14.246C10.646,37.235-2.19,49.562,7.468,60.618    c2.687,2.901,6.554,2.35,7.531-0.81c1.626,0.247,3.913,0.309,5.092-0.207c1.355-0.593,0.509-1.44-0.338-0.848    c-0.712,0.5-2.924,0.519-4.573,0.21c0.046-0.356,0.061-0.736,0.04-1.142c-0.042-0.831-0.266-1.535-0.614-2.111    c1.676-0.986,2.646-2.16,3.368-2.802c0.763-0.679,0.339-1.355-0.423-0.431c-0.57,0.691-2.154,1.852-3.438,2.582    c-0.786-0.838-1.894-1.265-3.005-1.275c0.238-1.539,0.918-3.293,1.444-4.039c0.679-0.96,0.508-1.243-0.423-0.48    c-0.779,0.637-1.557,2.575-1.792,4.581c-1.343,0.226-2.58,1.08-3.121,2.578c-4.067-6.679,3.121-15.406,9.766-14.106    c5.296,1.036,8.781,10.592,10.364,16.745c-0.213,1.344-0.354,2.619-0.399,3.789c-0.175,4.452,1.975,19.885,18.271,22.205    c-0.418,3.382-0.524,8.158,0.217,10.719c0.859,2.966,0.836,0.51,0.667,0c-0.745-2.23-0.953-6.587-0.164-10.627    c0.932,0.107,1.906,0.177,2.928,0.195c1.417,0.028,2.74-0.012,3.978-0.106c-0.398,3.37-0.488,8.022,0.24,10.538    c0.859,2.966,0.836,0.51,0.666,0c-0.742-2.227-0.953-6.57-0.168-10.604c15.266-1.511,17.062-12.281,17.586-20.985    c0.027-0.461,0.031-0.94,0.014-1.438c10.215-1.134,14.297-7.725,10.375-15.094c-4.193-7.878,0.127-12.2,2.16-12.581    c-0.949,0.317-1.637,3.087,0.705,4.672c-0.434,1.477-0.52,3.354-0.281,4.605c0.34,1.779,0.547,0.763,0.443-0.254    c-0.084-0.814,0.064-2.399,0.604-3.929c0.316,0.143,0.674,0.268,1.072,0.37c0.973,0.25,1.814,0.153,2.496-0.179    c0.451,1.114,0.891,2.362,0.891,3.314c0,1.355,0.848,1.44,0.764-0.169c-0.059-1.12-0.488-2.527-0.914-3.651    c0.855-0.78,1.307-2.019,1.264-3.298c1.383,0.693,3.861,2.184,4.225,3.762C95.408,42.149,96.256,41.302,95.746,39.946z     M33.405,29.877c-2.527,0-4.575-2.048-4.575-4.575s2.048-4.575,4.575-4.575c2.526,0,4.574,2.048,4.574,4.575    S35.932,29.877,33.405,29.877z M60.662,20.728c2.527,0,4.574,2.048,4.574,4.575s-2.047,4.575-4.574,4.575    c-2.525,0-4.574-2.048-4.574-4.575S58.137,20.728,60.662,20.728z"/></g></g><text x="0" y="115" fill="#000000" font-size="5px" font-weight="bold" font-family="'Helvetica Neue', Helvetica, Arial-Unicode, Arial, Sans-serif">Created by Alex WaZa</text><text x="0" y="120" fill="#000000" font-size="5px" font-weight="bold" font-family="'Helvetica Neue', Helvetica, Arial-Unicode, Arial, Sans-serif">from the Noun Project</text></svg>