<svg xmlns="http://www.w3.org/2000/svg" xmlns:xlink="http://www.w3.org/1999/xlink" version="1.1" x="0px" y="0px" viewBox="0 0 90 112.5" enable-background="new 0 0 90 90" xml:space="preserve"><g><path d="M55.7,48.6c1.7,0,3.1-1.4,3.1-3.1s-1.4-3.1-3.1-3.1s-3.1,1.4-3.1,3.1S54.1,48.6,55.7,48.6z M55.7,44.4   c0.6,0,1.1,0.5,1.1,1.1s-0.5,1.1-1.1,1.1s-1.1-0.5-1.1-1.1S55.2,44.4,55.7,44.4z"/><path d="M79.6,74.6L79.6,74.6c0.6,0,1-0.4,1-1c0-0.6-0.4-1-1-1H67.9V9.3c0-0.6-0.4-1-1-1H20.4c-0.6,0-1,0.4-1,1v63.3H7.7   c-0.6,0-1,0.4-1,1s0.4,1,1,1h11.7v4H7.7c-0.6,0-1,0.4-1,1s0.4,1,1,1h11.7v0.2c0,0.6,0.4,1,1,1h5.2h36.6h4.6c0.6,0,1-0.4,1-1v-0.2   h11.7c0.6,0,1-0.4,1-1c0-0.6-0.4-1-1-1l0,0H67.9v-4H79.6z M61.5,75.8H25.8v-61h35.7V75.8z M24.6,78.8c0-0.2,0.1-0.3,0.2-0.5   c0.2-0.3,0.5-0.5,0.8-0.5h0.2h35.7h0.7c0.1,0,0.2,0,0.3,0.1c0.4,0.1,0.7,0.5,0.7,0.9c0,0.6-0.4,1-1,1H25.6   C25.1,79.8,24.6,79.4,24.6,78.8z M63.5,76.1V13.8c0-0.6-0.4-1-1-1H24.8c-0.6,0-1,0.4-1,1v62.7c-0.7,0.5-1.2,1.4-1.2,2.3   c0,0.4,0.1,0.7,0.2,1h-1.4v-0.2v-6V10.3h44.5v63.3v6v0.2h-0.8c0.1-0.3,0.2-0.6,0.2-1C65.2,77.6,64.5,76.6,63.5,76.1z"/></g><text x="0" y="105" fill="#000000" font-size="5px" font-weight="bold" font-family="'Helvetica Neue', Helvetica, Arial-Unicode, Arial, Sans-serif">Created by Jamie Dickinson</text><text x="0" y="110" fill="#000000" font-size="5px" font-weight="bold" font-family="'Helvetica Neue', Helvetica, Arial-Unicode, Arial, Sans-serif">from the Noun Project</text></svg>