<svg xmlns="http://www.w3.org/2000/svg" xmlns:xlink="http://www.w3.org/1999/xlink" version="1.1" x="0px" y="0px" viewBox="0 0 90 112.5" enable-background="new 0 0 90 90" xml:space="preserve"><g><g><path fill="#000000" d="M49.884,89.484c-0.644,0-1.29-0.048-1.926-0.143c-9.232-1.383-25.625-6.705-26.987-7.494    c-2.411-1.396-4.133-3.646-4.849-6.337c-0.717-2.692-0.343-5.502,1.053-7.911c2.877-4.964,5.444-5.177,12.302-5.746    c0.333-0.023,7.74-0.555,12.482-0.555c0.628,0,1.178,0.011,1.658,0.03c3.48-6.343,16.778-31.459,17.894-33.936    c0.508-1.122,2.048-4.529,5.549-4.529c1.998,0,4,1.065,6.534,2.415c0.463,0.247,0.944,0.503,1.449,0.765    c1.888,0.979,3.479,1.706,4.885,2.347c4.83,2.203,8.021,3.657,5.289,9.708c-3.05,6.757-23.235,43.483-24.165,45.043    C58.716,87.054,54.438,89.484,49.884,89.484z M41.958,64.995c-4.608,0-12.122,0.535-12.197,0.542    c-6.738,0.557-7.542,0.727-9.39,3.915c-0.902,1.555-1.143,3.369-0.68,5.107c0.462,1.738,1.574,3.191,3.13,4.092    c1.071,0.511,16.59,5.675,25.682,7.037c0.454,0.066,0.918,0.102,1.38,0.102c3.259,0,6.322-1.739,7.995-4.541    c0.924-1.55,20.951-37.984,23.971-44.672c1.217-2.696,1.217-2.696-3.455-4.826c-1.374-0.626-3.084-1.406-5.055-2.43    c-0.516-0.267-1.01-0.53-1.483-0.782c-1.998-1.063-3.722-1.981-4.798-1.981c-0.334,0-1.117,0-2.182,2.355    c-1.266,2.807-16.288,31.161-18.608,35.248c-0.364,0.643-1.071,1.016-1.811,0.923C43.912,65.023,43.07,64.995,41.958,64.995z"/></g></g><g><path fill="#000000" d="M81.939,40.438c-0.106,0-0.214-0.023-0.316-0.072L61.807,31.05c-0.372-0.175-0.532-0.618-0.357-0.99   c0.177-0.372,0.621-0.529,0.988-0.357l19.818,9.317c0.372,0.176,0.531,0.619,0.356,0.991C82.485,40.28,82.218,40.438,81.939,40.438   z"/></g><g><path fill="#000000" d="M66.977,33.241c-0.108,0-0.218-0.024-0.322-0.074c-0.37-0.177-0.526-0.622-0.349-0.992l3.336-6.958   c0.178-0.371,0.621-0.527,0.993-0.35c0.369,0.178,0.526,0.622,0.348,0.993l-3.336,6.958C67.519,33.085,67.254,33.241,66.977,33.241   z"/></g><g><path fill="#000000" d="M70.69,35.08c-0.108,0-0.217-0.023-0.321-0.073c-0.37-0.177-0.527-0.622-0.349-0.992l3.337-6.958   c0.179-0.372,0.624-0.523,0.992-0.349c0.37,0.177,0.527,0.622,0.349,0.992l-3.337,6.958C71.233,34.924,70.968,35.08,70.69,35.08z"/></g><g><path fill="#000000" d="M74.25,36.719c-0.108,0-0.218-0.023-0.321-0.074c-0.371-0.177-0.527-0.621-0.35-0.992l3.337-6.958   c0.18-0.372,0.626-0.523,0.993-0.349c0.37,0.178,0.526,0.622,0.349,0.993l-3.337,6.958C74.793,36.562,74.527,36.719,74.25,36.719z"/></g><g><path fill="#000000" d="M77.687,38.014c-0.109,0-0.218-0.023-0.322-0.074c-0.37-0.177-0.526-0.621-0.349-0.992l3.337-6.958   c0.18-0.372,0.625-0.525,0.992-0.349c0.371,0.178,0.527,0.622,0.35,0.993l-3.337,6.958C78.229,37.858,77.964,38.014,77.687,38.014z   "/></g><path fill="#000000" d="M49.645,88.599c-1.555,0-3.19-0.306-4.864-0.91c-0.192-0.07-0.347-0.217-0.43-0.405  c-0.081-0.188-0.081-0.401,0-0.591l4.136-9.622c0.138-0.322,0.484-0.501,0.831-0.434l11.608,2.368  c0.217,0.043,0.403,0.182,0.508,0.378c0.104,0.196,0.116,0.428,0.031,0.632C61.322,80.365,57.853,88.599,49.645,88.599z   M46.036,86.538c1.246,0.38,2.457,0.574,3.608,0.574c5.767,0,8.976-4.865,10.041-6.844l-10.072-2.053L46.036,86.538z"/><path fill="#000000" d="M22.228,81.206c-0.128,0-0.255-0.031-0.368-0.097l-0.331-0.187c-2.161-1.255-3.7-3.267-4.341-5.674  c-0.642-2.404-0.307-4.917,0.941-7.07c1.661-2.867,4.754-4.646,8.072-4.646c0.433,0,0.87,0.031,1.299,0.092  c0.165,0.024,0.317,0.102,0.433,0.223c1.862,1.941,2.887,4.487,2.887,7.165c0,4.986-3.556,9.269-8.456,10.182  C22.319,81.203,22.273,81.206,22.228,81.206z M26.201,65.021c-2.79,0-5.389,1.497-6.785,3.904c-1.049,1.809-1.33,3.92-0.791,5.942  c0.539,2.023,1.833,3.714,3.643,4.763l0.085,0.048c4.06-0.881,6.979-4.484,6.979-8.666c0-2.206-0.814-4.308-2.297-5.946  C26.758,65.035,26.478,65.021,26.201,65.021z"/><g><path fill="#000000" d="M35.549,58.037c-1.568,0-3.143-0.279-4.643-0.855c-0.611-0.235-1.2-0.515-1.75-0.826   C21.046,51.757,7.651,40.904,6.66,39.679c-1.75-2.169-2.55-4.889-2.252-7.657c0.296-2.77,1.654-5.257,3.822-7.005   c4.465-3.601,6.938-2.88,13.543-0.951c0.433,0.131,9.294,2.833,13.386,4.585c5.519-4.666,26.943-23.337,28.884-25.256   c1.839-1.818,3.458-2.643,5.204-2.57c2.639,0.101,4.49,2.236,6.832,4.938c0.343,0.395,0.7,0.806,1.074,1.229   c1.409,1.59,2.636,2.84,3.717,3.942c3.72,3.789,6.177,6.292,1.455,10.96c-1.093,1.081-3.362,3.133-6.744,6.099   c-0.77,0.673-1.937,0.595-2.606-0.172c-0.674-0.767-0.596-1.933,0.171-2.605c3.326-2.917,5.541-4.918,6.582-5.948   c2.104-2.08,2.104-2.08-1.493-5.746c-1.058-1.078-2.374-2.418-3.846-4.08c-0.384-0.434-0.748-0.854-1.1-1.259   c-1.688-1.946-3.146-3.627-4.183-3.667C68.344,4.5,67.35,5.32,66.638,6.022c-2.2,2.175-26.396,23.249-30.02,26.224   c-0.571,0.47-1.366,0.553-2.021,0.213c-2.433-1.259-10.843-3.93-13.879-4.854c-6.489-1.893-7.301-2.026-10.17,0.287   c-1.4,1.129-2.276,2.734-2.468,4.522c-0.192,1.788,0.325,3.543,1.453,4.942c0.817,0.861,13.454,11.254,21.447,15.785   c0.394,0.226,0.815,0.424,1.253,0.593c3.045,1.168,6.527,0.643,9.089-1.372c0.439-0.344,5.428-4.532,12.262-10.338   c0.778-0.662,1.944-0.565,2.604,0.212c0.659,0.777,0.565,1.942-0.212,2.603c-6.134,5.211-11.783,9.965-12.371,10.427   C41.288,57.089,38.43,58.037,35.549,58.037z"/></g><path fill="#000000" d="M78.694,22.952c-0.196,0-0.393-0.077-0.537-0.229L63.002,6.915c-0.284-0.296-0.275-0.767,0.021-1.052  c0.298-0.284,0.77-0.273,1.051,0.023l15.155,15.808c0.285,0.296,0.275,0.767-0.021,1.052C79.063,22.883,78.878,22.952,78.694,22.952  z"/><path fill="#000000" d="M67.309,10.866c-0.197,0-0.395-0.078-0.542-0.233c-0.282-0.299-0.269-0.77,0.031-1.051l5.61-5.298  c0.299-0.283,0.77-0.269,1.052,0.03c0.282,0.299,0.269,0.769-0.03,1.051l-5.61,5.298C67.676,10.798,67.491,10.866,67.309,10.866z"/><path fill="#000000" d="M70.117,13.914c-0.197,0-0.395-0.078-0.542-0.233c-0.281-0.299-0.268-0.77,0.031-1.052l5.609-5.296  c0.3-0.282,0.771-0.269,1.053,0.03c0.282,0.299,0.269,0.77-0.03,1.052l-5.61,5.297C70.484,13.847,70.3,13.914,70.117,13.914z"/><path fill="#000000" d="M72.852,16.723c-0.197,0-0.395-0.078-0.542-0.233c-0.282-0.299-0.269-0.77,0.03-1.052l5.61-5.297  c0.299-0.282,0.771-0.268,1.053,0.03c0.282,0.299,0.269,0.77-0.031,1.052l-5.61,5.296C73.217,16.656,73.034,16.723,72.852,16.723z"/><path fill="#000000" d="M75.593,19.165c-0.197,0-0.395-0.078-0.54-0.233c-0.282-0.299-0.269-0.77,0.029-1.052l5.611-5.297  c0.299-0.282,0.77-0.268,1.052,0.031c0.282,0.298,0.269,0.77-0.029,1.052l-5.611,5.296C75.96,19.098,75.775,19.165,75.593,19.165z"/><path fill="#000000" d="M35.048,57.028c-2.912,0-5.69-1.131-8.258-3.358c-0.155-0.133-0.248-0.325-0.256-0.531  c-0.009-0.204,0.067-0.403,0.21-0.549l7.312-7.499c0.248-0.252,0.638-0.294,0.933-0.106l9.986,6.378  c0.187,0.118,0.31,0.314,0.337,0.534c0.027,0.222-0.044,0.441-0.197,0.603C44.94,52.685,40.777,57.028,35.048,57.028z M28.374,53.05  c2.114,1.653,4.355,2.489,6.674,2.489c3.855,0,7-2.303,8.317-3.439l-8.667-5.536L28.374,53.05z"/><path fill="#000000" d="M10.065,39.739C10.065,39.739,10.065,39.739,10.065,39.739c-0.626,0-1.256-0.058-1.873-0.171  c-0.174-0.033-0.332-0.126-0.443-0.264l-0.238-0.293c-1.567-1.942-2.282-4.375-2.017-6.851c0.265-2.476,1.479-4.7,3.417-6.262  c2.888-2.329,7.153-2.681,10.38-0.89c0.146,0.081,0.26,0.209,0.324,0.363c1.041,2.484,1.084,5.227,0.124,7.726  C18.212,37.069,14.324,39.739,10.065,39.739z M8.728,38.148c0.442,0.068,0.891,0.102,1.337,0.102c3.647,0,6.978-2.285,8.286-5.688  c0.792-2.058,0.786-4.312-0.01-6.375c-1.106-0.566-2.341-0.865-3.59-0.865c-1.803,0-3.5,0.6-4.906,1.733  c-1.629,1.313-2.648,3.182-2.872,5.264c-0.223,2.081,0.378,4.125,1.691,5.753L8.728,38.148z"/><text x="0" y="105" fill="#000000" font-size="5px" font-weight="bold" font-family="'Helvetica Neue', Helvetica, Arial-Unicode, Arial, Sans-serif">Created by Yazmin Alanis</text><text x="0" y="110" fill="#000000" font-size="5px" font-weight="bold" font-family="'Helvetica Neue', Helvetica, Arial-Unicode, Arial, Sans-serif">from the Noun Project</text></svg>